<svg width="220" height="220" viewBox="0 0 220 220" fill="none" xmlns="http://www.w3.org/2000/svg">
  <g stroke="#fff" stroke-width="12" stroke-linecap="round" stroke-linejoin="round">
    <path d="M132 66c20-27 44-31 61-29-7 22-22 40-49 45"/>
    <path d="M93 69c-5-24 2-41 18-55 12 18 14 38 5 59"/>
    <path d="M74 97c-19 9-34 28-34 52 0 31 25 56 56 56 16 0 30-6 40-17"/>
    <path d="M131 91c-31 0-56 25-56 56s25 56 56 56 56-25 56-56-25-56-56-56Z"/>
    <path d="M92 85c19-7 38-6 56 4"/>
  </g>
  <g stroke="#c85c55" stroke-width="5" stroke-linecap="round" stroke-linejoin="round">
    <path d="M74 97c-19 9-34 28-34 52 0 31 25 56 56 56 16 0 30-6 40-17"/>
    <path d="M131 91c-31 0-56 25-56 56s25 56 56 56 56-25 56-56-25-56-56-56Z"/>
    <path d="M92 85c19-7 38-6 56 4"/>
  </g>
  <g stroke="#fff" stroke-width="9" stroke-linecap="round">
    <path d="M66 132l3 1M91 121l3 1M117 116l3 2M146 125l3 2M166 150l2 3M54 159l2 3M82 170l3 2M113 151l3 2M136 174l3 2M101 192l3 1M151 101l2 2"/>
  </g>
  <g stroke="#d84e46" stroke-width="4" stroke-linecap="round">
    <path d="M66 132l3 1M91 121l3 1M117 116l3 2M146 125l3 2M166 150l2 3M54 159l2 3M82 170l3 2M113 151l3 2M136 174l3 2M101 192l3 1M151 101l2 2"/>
  </g>
  <g stroke="#fff" stroke-width="12" stroke-linecap="round" stroke-linejoin="round">
    <path d="M132 66c20-27 44-31 61-29-7 22-22 40-49 45"/>
    <path d="M93 69c-5-24 2-41 18-55 12 18 14 38 5 59"/>
  </g>
  <g stroke="#8fa669" stroke-width="5" stroke-linecap="round" stroke-linejoin="round">
    <path d="M132 66c20-27 44-31 61-29-7 22-22 40-49 45"/>
    <path d="M151 58c13-6 25-9 38-9"/>
    <path d="M93 69c-5-24 2-41 18-55 12 18 14 38 5 59"/>
    <path d="M109 28c-2 14-1 27 5 40"/>
  </g>
</svg>
