<svg width="220" height="220" viewBox="0 0 220 220" fill="none" xmlns="http://www.w3.org/2000/svg">
  <g stroke="#fff" stroke-width="13" stroke-linecap="round" stroke-linejoin="round">
    <path d="M30 151c27-59 83-91 157-73-14 62-75 103-157 73Z"/>
    <path d="M42 145c43 19 94 8 130-47"/>
    <path d="M32 150c34 41 102 50 155 13"/>
  </g>
  <path d="M30 151c27-59 83-91 157-73-14 62-75 103-157 73Z" fill="#ff9283"/>
  <path d="M32 150c34 41 102 50 155 13-41 12-91 7-145-18l-10 5Z" fill="#deefd7"/>
  <path d="M42 145c43 19 94 8 130-47" stroke="#fff8e6" stroke-width="16" stroke-linecap="round"/>
  <g stroke="#ff6f62" stroke-width="5" stroke-linecap="round" stroke-linejoin="round">
    <path d="M30 151c27-59 83-91 157-73-14 62-75 103-157 73Z"/>
  </g>
  <path d="M32 150c34 41 102 50 155 13" stroke="#579a55" stroke-width="8" stroke-linecap="round" stroke-linejoin="round"/>
  <path d="M42 145c43 19 94 8 130-47" stroke="#2f7d49" stroke-width="5" stroke-linecap="round"/>
  <g fill="#67453b">
    <path d="M91 120c5 5 4 11-1 17-7-6-7-11 1-17Z"/>
    <path d="M123 103c5 5 4 11-1 17-7-6-7-11 1-17Z"/>
    <path d="M136 134c5 5 4 11-1 17-7-6-7-11 1-17Z"/>
    <path d="M158 111c5 5 4 11-1 17-7-6-7-11 1-17Z"/>
  </g>
</svg>
