<svg xmlns="http://www.w3.org/2000/svg" width="1024" height="512" viewBox="0 0 1024 512" fill="none">
  <defs>
    <radialGradient id="s04-qingming-svg-glow" cx="70%" cy="40%" r="52%">
      <stop offset="0" stop-color="#8FE6BC" stop-opacity=".46"/>
      <stop offset=".48" stop-color="#C07DBB" stop-opacity=".16"/>
      <stop offset="1" stop-color="#F3F9F0" stop-opacity="0"/>
    </radialGradient>
    <filter id="s04-qingming-svg-soft" x="-20%" y="-20%" width="140%" height="140%">
      <feGaussianBlur stdDeviation="8"/>
    </filter>
    <filter id="s04-qingming-svg-grain" x="0" y="0" width="100%" height="100%">
      <feTurbulence type="fractalNoise" baseFrequency=".95" numOctaves="3" seed="33"/>
      <feColorMatrix type="saturate" values="0"/>
      <feComponentTransfer>
        <feFuncA type="table" tableValues="0 .08"/>
      </feComponentTransfer>
    </filter>
    <linearGradient id="s04-qingming-svg-stroke" x1="460" y1="80" x2="930" y2="430" gradientUnits="userSpaceOnUse">
      <stop stop-color="#17243F" stop-opacity=".72"/>
      <stop offset=".45" stop-color="#6CB3C7" stop-opacity=".72"/>
      <stop offset="1" stop-color="#C07DBB" stop-opacity=".54"/>
    </linearGradient>
  </defs>
  <rect width="1024" height="512" fill="url(#s04-qingming-svg-glow)" opacity=".86"/>
  <g opacity=".98" transform="translate(-156 -54) scale(1.22)"><path d="M530 410 C610 376 704 382 772 420 C838 458 910 452 964 414" stroke="#E3C5A7" stroke-width="11" stroke-linecap="round" stroke-linejoin="round" opacity="0.55"/>
    <path d="M548 432 C628 408 712 414 788 444 C858 472 914 464 960 440" stroke="#8FE6BC" stroke-width="4" stroke-linecap="round" stroke-linejoin="round" opacity="0.28"/>
      <path d="M560 374 C636 292 712 222 868 146" stroke="url(#s04-qingming-svg-stroke)" stroke-width="7" stroke-linecap="round" stroke-linejoin="round" opacity="0.44"/>
      <g transform="translate(664 304) rotate(12) scale(0.48)">
    <path d="M0 0 C42 -42 88 -42 118 0 C83 30 40 34 0 0Z" fill="#8FE6BC" opacity="0.5"/>
    <path d="M10 -1 C44 0 75 0 110 0" stroke="#17243F" stroke-width="4" stroke-linecap="round" stroke-linejoin="round" opacity="0.34"/>
  </g><g transform="translate(790 226) rotate(-18) scale(0.44)">
    <path d="M0 0 C42 -42 88 -42 118 0 C83 30 40 34 0 0Z" fill="#7CCF95" opacity="0.5"/>
    <path d="M10 -1 C44 0 75 0 110 0" stroke="#17243F" stroke-width="4" stroke-linecap="round" stroke-linejoin="round" opacity="0.34"/>
  </g>
      <path d="M654 94 C640 126 626 158 614 190" stroke="#398DEA" stroke-width="5" stroke-linecap="round" stroke-linejoin="round" opacity="0.42"/>
      <path d="M746 72 C728 116 710 154 690 198" stroke="#6CB3C7" stroke-width="5" stroke-linecap="round" stroke-linejoin="round" opacity="0.42"/>
      <path d="M846 108 C826 144 810 178 794 214" stroke="#8C72D6" stroke-width="4" stroke-linecap="round" stroke-linejoin="round" opacity="0.34"/>
      <ellipse cx="730" cy="190" rx="96" ry="42" fill="#F3F9F0" opacity="0.24" filter="url(#s04-qingming-svg-soft)"/></g>
  <rect width="1024" height="512" filter="url(#s04-qingming-svg-grain)" opacity=".58"/>
</svg>