<svg xmlns="http://www.w3.org/2000/svg" width="1024" height="512" viewBox="0 0 1024 512" fill="none">
  <defs>
    <radialGradient id="s05-lixia-svg-glow" cx="70%" cy="40%" r="52%">
      <stop offset="0" stop-color="#6CB3C7" stop-opacity=".46"/>
      <stop offset=".48" stop-color="#8FE6BC" stop-opacity=".16"/>
      <stop offset="1" stop-color="#F3F9F0" stop-opacity="0"/>
    </radialGradient>
    <filter id="s05-lixia-svg-soft" x="-20%" y="-20%" width="140%" height="140%">
      <feGaussianBlur stdDeviation="8"/>
    </filter>
    <filter id="s05-lixia-svg-grain" x="0" y="0" width="100%" height="100%">
      <feTurbulence type="fractalNoise" baseFrequency=".95" numOctaves="3" seed="30"/>
      <feColorMatrix type="saturate" values="0"/>
      <feComponentTransfer>
        <feFuncA type="table" tableValues="0 .08"/>
      </feComponentTransfer>
    </filter>
    <linearGradient id="s05-lixia-svg-stroke" x1="460" y1="80" x2="930" y2="430" gradientUnits="userSpaceOnUse">
      <stop stop-color="#17243F" stop-opacity=".72"/>
      <stop offset=".45" stop-color="#6CB3C7" stop-opacity=".72"/>
      <stop offset="1" stop-color="#C07DBB" stop-opacity=".54"/>
    </linearGradient>
  </defs>
  <rect width="1024" height="512" fill="url(#s05-lixia-svg-glow)" opacity=".86"/>
  <g opacity=".98" transform="translate(-156 -54) scale(1.22)"><path d="M530 410 C610 376 704 382 772 420 C838 458 910 452 964 414" stroke="#E3C5A7" stroke-width="11" stroke-linecap="round" stroke-linejoin="round" opacity="0.55"/>
    <path d="M548 432 C628 408 712 414 788 444 C858 472 914 464 960 440" stroke="#8FE6BC" stroke-width="4" stroke-linecap="round" stroke-linejoin="round" opacity="0.28"/>
      <path d="M650 390 C680 332 712 288 760 246" stroke="url(#s05-lixia-svg-stroke)" stroke-width="8" stroke-linecap="round" stroke-linejoin="round" opacity="0.42"/>
      <ellipse cx="760" cy="242" rx="58" ry="22" fill="#8FE6BC" opacity="0.52" transform="rotate(-12 760 242)"/>
      <ellipse cx="838" cy="254" rx="54" ry="20" fill="#7CCF95" opacity="0.42" transform="rotate(18 838 254)"/>
      <g transform="translate(780 188) scale(1.05)">
    <ellipse cx="0" cy="-20" rx="15" ry="26" fill="#F1A7CF" opacity="0.72" transform="rotate(0)"/>
    <ellipse cx="21" cy="-4" rx="15" ry="26" fill="#F1A7CF" opacity="0.72" transform="rotate(58)"/>
    <ellipse cx="13" cy="22" rx="15" ry="26" fill="#F1A7CF" opacity="0.72" transform="rotate(136)"/>
    <ellipse cx="-13" cy="22" rx="15" ry="26" fill="#F1A7CF" opacity="0.72" transform="rotate(224)"/>
    <ellipse cx="-21" cy="-4" rx="15" ry="26" fill="#F1A7CF" opacity="0.72" transform="rotate(302)"/>
    <ellipse cx="0" cy="2" rx="10" ry="10" fill="#F5B65B" opacity="0.86" />
  </g>
      <path d="M560 332 C650 300 786 304 916 338" stroke="#398DEA" stroke-width="5" stroke-linecap="round" stroke-linejoin="round" opacity="0.22"/>
      <path d="M586 356 C682 334 800 338 930 364" stroke="#6CB3C7" stroke-width="4" stroke-linecap="round" stroke-linejoin="round" opacity="0.24"/></g>
  <rect width="1024" height="512" filter="url(#s05-lixia-svg-grain)" opacity=".58"/>
</svg>