<svg xmlns="http://www.w3.org/2000/svg" width="1024" height="512" viewBox="0 0 1024 512" fill="none">
  <defs>
    <radialGradient id="s06-mangzhong-svg-glow" cx="70%" cy="40%" r="52%">
      <stop offset="0" stop-color="#6CB3C7" stop-opacity=".46"/>
      <stop offset=".48" stop-color="#8FE6BC" stop-opacity=".16"/>
      <stop offset="1" stop-color="#F3F9F0" stop-opacity="0"/>
    </radialGradient>
    <filter id="s06-mangzhong-svg-soft" x="-20%" y="-20%" width="140%" height="140%">
      <feGaussianBlur stdDeviation="8"/>
    </filter>
    <filter id="s06-mangzhong-svg-grain" x="0" y="0" width="100%" height="100%">
      <feTurbulence type="fractalNoise" baseFrequency=".95" numOctaves="3" seed="34"/>
      <feColorMatrix type="saturate" values="0"/>
      <feComponentTransfer>
        <feFuncA type="table" tableValues="0 .08"/>
      </feComponentTransfer>
    </filter>
    <linearGradient id="s06-mangzhong-svg-stroke" x1="460" y1="80" x2="930" y2="430" gradientUnits="userSpaceOnUse">
      <stop stop-color="#17243F" stop-opacity=".72"/>
      <stop offset=".45" stop-color="#6CB3C7" stop-opacity=".72"/>
      <stop offset="1" stop-color="#C07DBB" stop-opacity=".54"/>
    </linearGradient>
  </defs>
  <rect width="1024" height="512" fill="url(#s06-mangzhong-svg-glow)" opacity=".86"/>
  <g opacity=".98" transform="translate(-156 -54) scale(1.22)"><path d="M530 410 C610 376 704 382 772 420 C838 458 910 452 964 414" stroke="#E3C5A7" stroke-width="11" stroke-linecap="round" stroke-linejoin="round" opacity="0.55"/>
    <path d="M548 432 C628 408 712 414 788 444 C858 472 914 464 960 440" stroke="#8FE6BC" stroke-width="4" stroke-linecap="round" stroke-linejoin="round" opacity="0.28"/>
      <path d="M712 396 C704 300 720 214 766 110" stroke="url(#s06-mangzhong-svg-stroke)" stroke-width="7" stroke-linecap="round" stroke-linejoin="round" opacity="0.46"/>
      <path d="M810 392 C802 300 816 216 858 120" stroke="url(#s06-mangzhong-svg-stroke)" stroke-width="7" stroke-linecap="round" stroke-linejoin="round" opacity="0.42"/>
      <ellipse cx="748" cy="176" rx="18" ry="32" fill="#E3C5A7" opacity="0.62" transform="rotate(-34 748 176)"/><ellipse cx="754" cy="204" rx="18" ry="32" fill="#E3C5A7" opacity="0.62" transform="rotate(-34 754 204)"/><ellipse cx="760" cy="232" rx="18" ry="32" fill="#E3C5A7" opacity="0.62" transform="rotate(-34 760 232)"/><ellipse cx="766" cy="260" rx="18" ry="32" fill="#E3C5A7" opacity="0.62" transform="rotate(-34 766 260)"/><ellipse cx="772" cy="288" rx="18" ry="32" fill="#E3C5A7" opacity="0.62" transform="rotate(-34 772 288)"/>
      <ellipse cx="836" cy="176" rx="18" ry="32" fill="#BEEA86" opacity="0.45" transform="rotate(32 836 176)"/><ellipse cx="842" cy="204" rx="18" ry="32" fill="#BEEA86" opacity="0.45" transform="rotate(32 842 204)"/><ellipse cx="848" cy="232" rx="18" ry="32" fill="#BEEA86" opacity="0.45" transform="rotate(32 848 232)"/><ellipse cx="854" cy="260" rx="18" ry="32" fill="#BEEA86" opacity="0.45" transform="rotate(32 854 260)"/><ellipse cx="860" cy="288" rx="18" ry="32" fill="#BEEA86" opacity="0.45" transform="rotate(32 860 288)"/>
      <g transform="translate(654 326) rotate(-26) scale(0.58)">
    <path d="M0 0 C42 -42 88 -42 118 0 C83 30 40 34 0 0Z" fill="#8FE6BC" opacity="0.5"/>
    <path d="M10 -1 C44 0 75 0 110 0" stroke="#17243F" stroke-width="4" stroke-linecap="round" stroke-linejoin="round" opacity="0.34"/>
  </g><g transform="translate(846 332) rotate(24) scale(0.5)">
    <path d="M0 0 C42 -42 88 -42 118 0 C83 30 40 34 0 0Z" fill="#7CCF95" opacity="0.5"/>
    <path d="M10 -1 C44 0 75 0 110 0" stroke="#17243F" stroke-width="4" stroke-linecap="round" stroke-linejoin="round" opacity="0.34"/>
  </g></g>
  <rect width="1024" height="512" filter="url(#s06-mangzhong-svg-grain)" opacity=".58"/>
</svg>