<svg xmlns="http://www.w3.org/2000/svg" width="1024" height="512" viewBox="0 0 1024 512" fill="none">
  <defs>
    <radialGradient id="s07-xiaoshu-svg-glow" cx="70%" cy="40%" r="52%">
      <stop offset="0" stop-color="#6CB3C7" stop-opacity=".46"/>
      <stop offset=".48" stop-color="#8FE6BC" stop-opacity=".16"/>
      <stop offset="1" stop-color="#F3F9F0" stop-opacity="0"/>
    </radialGradient>
    <filter id="s07-xiaoshu-svg-soft" x="-20%" y="-20%" width="140%" height="140%">
      <feGaussianBlur stdDeviation="8"/>
    </filter>
    <filter id="s07-xiaoshu-svg-grain" x="0" y="0" width="100%" height="100%">
      <feTurbulence type="fractalNoise" baseFrequency=".95" numOctaves="3" seed="32"/>
      <feColorMatrix type="saturate" values="0"/>
      <feComponentTransfer>
        <feFuncA type="table" tableValues="0 .08"/>
      </feComponentTransfer>
    </filter>
    <linearGradient id="s07-xiaoshu-svg-stroke" x1="460" y1="80" x2="930" y2="430" gradientUnits="userSpaceOnUse">
      <stop stop-color="#17243F" stop-opacity=".72"/>
      <stop offset=".45" stop-color="#6CB3C7" stop-opacity=".72"/>
      <stop offset="1" stop-color="#C07DBB" stop-opacity=".54"/>
    </linearGradient>
  </defs>
  <rect width="1024" height="512" fill="url(#s07-xiaoshu-svg-glow)" opacity=".86"/>
  <g opacity=".98" transform="translate(-156 -54) scale(1.22)"><path d="M530 410 C610 376 704 382 772 420 C838 458 910 452 964 414" stroke="#E3C5A7" stroke-width="11" stroke-linecap="round" stroke-linejoin="round" opacity="0.55"/>
    <path d="M548 432 C628 408 712 414 788 444 C858 472 914 464 960 440" stroke="#8FE6BC" stroke-width="4" stroke-linecap="round" stroke-linejoin="round" opacity="0.28"/>
      <path d="M562 304 C668 210 808 210 936 300" stroke="url(#s07-xiaoshu-svg-stroke)" stroke-width="6" stroke-linecap="round" stroke-linejoin="round" opacity="0.38"/>
      <path d="M588 318 C702 252 804 260 918 334" stroke="#6CB3C7" stroke-width="4" stroke-linecap="round" stroke-linejoin="round" opacity="0.32"/>
      <ellipse cx="780" cy="294" rx="86" ry="58" fill="#BEEA86" opacity="0.62" transform="rotate(-7 780 294)"/>
      <path d="M714 284 C752 318 808 322 852 286" stroke="#17243F" stroke-width="5" stroke-linecap="round" stroke-linejoin="round" opacity="0.22"/>
      <g transform="translate(650 226) rotate(-20) scale(0.54)">
    <path d="M0 0 C42 -42 88 -42 118 0 C83 30 40 34 0 0Z" fill="#8FE6BC" opacity="0.5"/>
    <path d="M10 -1 C44 0 75 0 110 0" stroke="#17243F" stroke-width="4" stroke-linecap="round" stroke-linejoin="round" opacity="0.34"/>
  </g><g transform="translate(886 244) rotate(28) scale(0.5)">
    <path d="M0 0 C42 -42 88 -42 118 0 C83 30 40 34 0 0Z" fill="#7CCF95" opacity="0.5"/>
    <path d="M10 -1 C44 0 75 0 110 0" stroke="#17243F" stroke-width="4" stroke-linecap="round" stroke-linejoin="round" opacity="0.34"/>
  </g></g>
  <rect width="1024" height="512" filter="url(#s07-xiaoshu-svg-grain)" opacity=".58"/>
</svg>