<svg xmlns="http://www.w3.org/2000/svg" width="1024" height="512" viewBox="0 0 1024 512" fill="none">
  <defs>
    <radialGradient id="s12-daxue-svg-glow" cx="70%" cy="40%" r="52%">
      <stop offset="0" stop-color="#6CB3C7" stop-opacity=".46"/>
      <stop offset=".48" stop-color="#8C72D6" stop-opacity=".16"/>
      <stop offset="1" stop-color="#F3F9F0" stop-opacity="0"/>
    </radialGradient>
    <filter id="s12-daxue-svg-soft" x="-20%" y="-20%" width="140%" height="140%">
      <feGaussianBlur stdDeviation="8"/>
    </filter>
    <filter id="s12-daxue-svg-grain" x="0" y="0" width="100%" height="100%">
      <feTurbulence type="fractalNoise" baseFrequency=".95" numOctaves="3" seed="30"/>
      <feColorMatrix type="saturate" values="0"/>
      <feComponentTransfer>
        <feFuncA type="table" tableValues="0 .08"/>
      </feComponentTransfer>
    </filter>
    <linearGradient id="s12-daxue-svg-stroke" x1="460" y1="80" x2="930" y2="430" gradientUnits="userSpaceOnUse">
      <stop stop-color="#17243F" stop-opacity=".72"/>
      <stop offset=".45" stop-color="#6CB3C7" stop-opacity=".72"/>
      <stop offset="1" stop-color="#C07DBB" stop-opacity=".54"/>
    </linearGradient>
  </defs>
  <rect width="1024" height="512" fill="url(#s12-daxue-svg-glow)" opacity=".86"/>
  <g opacity=".98" transform="translate(-156 -54) scale(1.22)"><path d="M530 410 C610 376 704 382 772 420 C838 458 910 452 964 414" stroke="#E3C5A7" stroke-width="11" stroke-linecap="round" stroke-linejoin="round" opacity="0.55"/>
    <path d="M548 432 C628 408 712 414 788 444 C858 472 914 464 960 440" stroke="#8FE6BC" stroke-width="4" stroke-linecap="round" stroke-linejoin="round" opacity="0.28"/>
      <path d="M750 400 C748 308 750 218 762 120" stroke="url(#s12-daxue-svg-stroke)" stroke-width="8" stroke-linecap="round" stroke-linejoin="round" opacity="0.5"/>
      <g transform="translate(654 220) rotate(-14) scale(0.52)">
    <path d="M0 0 C42 -42 88 -42 118 0 C83 30 40 34 0 0Z" fill="#DCEAFB" opacity="0.5"/>
    <path d="M10 -1 C44 0 75 0 110 0" stroke="#17243F" stroke-width="4" stroke-linecap="round" stroke-linejoin="round" opacity="0.34"/>
  </g> <g transform="translate(688 290) rotate(-26) scale(0.5)">
    <path d="M0 0 C42 -42 88 -42 118 0 C83 30 40 34 0 0Z" fill="#6CB3C7" opacity="0.5"/>
    <path d="M10 -1 C44 0 75 0 110 0" stroke="#17243F" stroke-width="4" stroke-linecap="round" stroke-linejoin="round" opacity="0.34"/>
  </g>
      <g transform="translate(804 206) rotate(22) scale(0.5)">
    <path d="M0 0 C42 -42 88 -42 118 0 C83 30 40 34 0 0Z" fill="#DCEAFB" opacity="0.5"/>
    <path d="M10 -1 C44 0 75 0 110 0" stroke="#17243F" stroke-width="4" stroke-linecap="round" stroke-linejoin="round" opacity="0.34"/>
  </g> <g transform="translate(836 292) rotate(30) scale(0.48)">
    <path d="M0 0 C42 -42 88 -42 118 0 C83 30 40 34 0 0Z" fill="#8FE6BC" opacity="0.5"/>
    <path d="M10 -1 C44 0 75 0 110 0" stroke="#17243F" stroke-width="4" stroke-linecap="round" stroke-linejoin="round" opacity="0.34"/>
  </g>
      <g transform="translate(610 138) scale(0.5)" opacity=".68">
    <path d="M-30 0H30" stroke="#6CB3C7" stroke-width="4" stroke-linecap="round" stroke-linejoin="round" opacity="0.68"/>
    <path d="M0 -30V30" stroke="#6CB3C7" stroke-width="4" stroke-linecap="round" stroke-linejoin="round" opacity="0.68"/>
    <path d="M-22 -22L22 22" stroke="#8C72D6" stroke-width="3" stroke-linecap="round" stroke-linejoin="round" opacity="0.46"/>
    <path d="M22 -22L-22 22" stroke="#8C72D6" stroke-width="3" stroke-linecap="round" stroke-linejoin="round" opacity="0.46"/>
  </g><g transform="translate(902 172) scale(0.5)" opacity=".68">
    <path d="M-30 0H30" stroke="#6CB3C7" stroke-width="4" stroke-linecap="round" stroke-linejoin="round" opacity="0.68"/>
    <path d="M0 -30V30" stroke="#6CB3C7" stroke-width="4" stroke-linecap="round" stroke-linejoin="round" opacity="0.68"/>
    <path d="M-22 -22L22 22" stroke="#8C72D6" stroke-width="3" stroke-linecap="round" stroke-linejoin="round" opacity="0.46"/>
    <path d="M22 -22L-22 22" stroke="#8C72D6" stroke-width="3" stroke-linecap="round" stroke-linejoin="round" opacity="0.46"/>
  </g><g transform="translate(766 96) scale(0.36)" opacity=".68">
    <path d="M-30 0H30" stroke="#6CB3C7" stroke-width="4" stroke-linecap="round" stroke-linejoin="round" opacity="0.68"/>
    <path d="M0 -30V30" stroke="#6CB3C7" stroke-width="4" stroke-linecap="round" stroke-linejoin="round" opacity="0.68"/>
    <path d="M-22 -22L22 22" stroke="#8C72D6" stroke-width="3" stroke-linecap="round" stroke-linejoin="round" opacity="0.46"/>
    <path d="M22 -22L-22 22" stroke="#8C72D6" stroke-width="3" stroke-linecap="round" stroke-linejoin="round" opacity="0.46"/>
  </g>
      <ellipse cx="760" cy="390" rx="168" ry="36" fill="#F3F9F0" opacity="0.42" /></g>
  <rect width="1024" height="512" filter="url(#s12-daxue-svg-grain)" opacity=".58"/>
</svg>